<svg aria-hidden="true" style="position:absolute;width:0;height:0" xmlns="http://www.w3.org/2000/svg" overflow="hidden"><defs><symbol id="icon-display-1" viewBox="0 0 32 32"><path fill="var(--color1, #f5f5f5)" d="M0 2v20h32V2H0zm30 18H2V4h28v16zm-9 4H11l-1 4-2 2h16l-2-2-1-4z"/></symbol><symbol id="icon-location-1" viewBox="0 0 32 32"><path fill="var(--color1, #f5f5f5)" d="M16 0C10.477 0 6 4.477 6 10c0 10 10 22 10 22s10-12 10-22c0-5.523-4.477-10-10-10zm0 16a6 6 0 1 1 0-12 6 6 0 0 1 0 12z"/></symbol><symbol id="icon-users-1" viewBox="0 0 34 32"><path fill="var(--color1, #f5f5f5)" d="M21.513 24.082v-1.649c1.975-1.241 3.585-4.337 3.585-7.432 0-4.971 0-9-5.378-9s-5.378 4.029-5.378 9c0 3.096 1.611 6.191 3.585 7.432v1.649C11.846 24.637 7.171 27.97 7.171 32h25.098c0-4.03-4.676-7.364-10.756-7.918z"/><path fill="var(--color1, #f5f5f5)" d="M9.165 24.854c1.549-1.13 3.475-1.989 5.596-2.513a11.493 11.493 0 0 1-1.134-1.844A12.498 12.498 0 0 1 12.325 15c0-2.689 0-5.228.857-7.305.832-2.016 2.329-3.265 4.46-3.734C17.168 1.571 15.907 0 12.549 0 7.171 0 7.171 4.029 7.171 9c0 3.096 1.611 6.191 3.585 7.432v1.649C4.675 18.636 0 21.969 0 25.999h7.815c.407-.403.857-.787 1.35-1.146v.001z"/></symbol><symbol id="icon-Vector" viewBox="0 0 43 32"><path fill="var(--color1, #f5f5f5)" d="M38.667 0H4C1.8 0 0 1.8 0 4v24c0 2.2 1.8 4 4 4h34.667c2.2 0 4-1.8 4-4V4c0-2.2-1.8-4-4-4zM4 2.667h34.667A1.35 1.35 0 0 1 40 4v4H2.667V4A1.35 1.35 0 0 1 4 2.667zm34.667 26.666H4A1.35 1.35 0 0 1 2.667 28V16H40v12a1.35 1.35 0 0 1-1.333 1.333zm-33.334-8H8v5.333H5.333v-5.333zm5.334 0h2.667v5.333h-2.667v-5.333zm5.333 0h2.667v5.333H16v-5.333z"/></symbol></defs></svg>