<svg aria-hidden="true" style="position:absolute;width:0;height:0" xmlns="http://www.w3.org/2000/svg" overflow="hidden"><defs><symbol id="icon-Vector" viewBox="0 0 32 32"><path fill="var(--color1, #61a568)" d="M32 20.364V2.909H8C8 1.302 7.105 0 6 0H0v2.909h4l1.502 18.73C4.587 22.705 4 24.343 4 26.182 4 29.395 5.791 32 8 32h24v-2.909H8c-1.105 0-2-1.302-2-2.909v-.029l26-5.789z"/></symbol><symbol id="icon-bubbles2" viewBox="0 0 32 32"><path fill="var(--color1, #61a568)" d="M13.333 0c7.364 0 13.333 5.435 13.333 12.139s-5.97 12.139-13.333 12.139a14.81 14.81 0 0 1-2.079-.147C8.39 27.34 5.082 27.916 1.778 28v-.785C3.563 26.235 5 24.45 5 22.411c0-.285-.02-.564-.056-.837C1.929 19.349 0 15.949 0 12.14 0 5.436 5.97.001 13.333.001V0zm14.334 27.209c0 1.748 1.009 3.278 2.556 4.118V32c-2.865-.072-5.494-.566-7.976-3.316a12.87 12.87 0 0 1-1.802.126c-2.652 0-5.095-.805-7.044-2.157 4.019-.016 7.812-1.464 10.69-4.084a14.413 14.413 0 0 0 3.4-4.605 13.737 13.737 0 0 0 1.253-6.799c2.016 1.873 3.257 4.426 3.257 7.24 0 3.265-1.671 6.179-4.284 8.086a5.3 5.3 0 0 0-.049.718z"/></symbol><symbol id="icon-earth" viewBox="0 0 32 32"><path fill="var(--color1, #61a568)" d="M16 0C7.163 0 0 7.163 0 16s7.163 16 16 16 16-7.163 16-16S24.837 0 16 0zm0 30c-1.967 0-3.84-.407-5.538-1.139l7.286-8.197a.998.998 0 0 0 .253-.664v-3a1 1 0 0 0-1-1c-3.531 0-7.256-3.671-7.293-3.707A1 1 0 0 0 9.001 12h-4a1 1 0 0 0-1 1v6c0 .379.214.725.553.894l3.447 1.724v5.871c-3.627-2.53-6-6.732-6-11.489 0-2.147.484-4.181 1.348-6h3.652c.265 0 .52-.105.707-.293l4-4A1 1 0 0 0 12.001 5V2.581a14.013 14.013 0 0 1 4-.581c2.2 0 4.281.508 6.134 1.412A5.961 5.961 0 0 0 20.002 8c0 1.603.624 3.109 1.757 4.243a5.985 5.985 0 0 0 4.536 1.751c.432 1.619 1.211 5.833-.263 11.635a.936.936 0 0 0-.026.163A13.956 13.956 0 0 1 16.002 30H16z"/></symbol><symbol id="icon-Vector-1" viewBox="0 0 31 32"><path fill="var(--color1, #61a568)" d="M31.304 16.203c0-8.569-7.007-15.515-15.652-15.515S0 7.634 0 16.203c0 1.861.331 3.645.937 5.298A6.705 6.705 0 0 0 0 24.93c0 3.419 2.551 6.248 5.87 6.719V18.212a6.852 6.852 0 0 0-2.682.981 12.61 12.61 0 0 1-.252-2.506c0-6.962 5.693-12.606 12.717-12.606S28.37 9.724 28.37 16.687c0 .858-.086 1.696-.251 2.506a6.842 6.842 0 0 0-2.683-.982v13.438c3.318-.47 5.87-3.299 5.87-6.719a6.707 6.707 0 0 0-.937-3.429c.607-1.653.937-3.438.937-5.299v.001z"/></symbol><symbol id="icon-Vector-2" viewBox="0 0 31 32"><path fill="var(--color1, #61a568)" d="M25.435 5.103V.68H5.87v4.423H0v4.423c0 3.664 2.628 6.634 5.87 6.634.613 0 1.205-.106 1.762-.304 1.412 2.281 3.565 3.932 6.064 4.506v6.855h-1.957c-2.161 0-3.913 1.98-3.913 4.423h15.652c0-2.442-1.752-4.423-3.913-4.423h-1.957v-6.855c2.499-.574 4.653-2.225 6.064-4.506a5.237 5.237 0 0 0 1.762.304c3.242 0 5.87-2.97 5.87-6.634V5.103h-5.87zM5.87 13.534c-1.956 0-3.546-1.798-3.546-4.008V7.315H5.87v2.211c0 1.389.227 2.717.641 3.942a3.16 3.16 0 0 1-.641.066zm23.111-4.008c0 2.21-1.591 4.008-3.546 4.008-.219 0-.432-.023-.641-.066.414-1.224.641-2.553.641-3.942V7.315h3.546v2.211z"/></symbol><symbol id="icon-steam2" viewBox="0 0 32 32"><path fill="var(--color1, #61a568)" d="M9.498 26.125a2.625 2.625 0 0 0 1.459-4.809l-2.065-1.377a4.208 4.208 0 1 1-3.096 4.245l2.249 1.499c.448.298.953.441 1.454.441l-.001.001zM26.667 0C29.601 0 32 2.4 32 5.334v21.332C32 29.602 29.601 32 26.667 32H5.334C2.4 32 0 29.602 0 26.666v-6.345l3.792 2.528a6.313 6.313 0 1 0 12.425.047L24 15.928A6.999 6.999 0 0 0 27.95 4.05 7 7 0 0 0 16.071 8l-6.397 9.695a6.292 6.292 0 0 0-2.866.856L0 14.012V5.334C0 2.4 2.4 0 5.334 0h21.333zM28 9a5 5 0 1 0-10.001.001A5 5 0 0 0 28 9zm-8 0a3 3 0 1 1 6 0 3 3 0 0 1-6 0z"/></symbol></defs></svg>